#N canvas 411 291 806 348 10;
#X msg 106 65 disconnect;
#X obj 59 396 sendOSC;
#X obj 59 396 sendOSC;
#X obj 59 396 sendOSC;
#X obj 59 396 sendOSC;
#X obj 59 396 sendOSC;
#X floatatom 59 423 5 0 0 0 - - -;
#X floatatom 113 425 5 0 0 0 - - -;
#X text 162 428 bundleDepth;
#X obj 59 396 sendOSC;
#X floatatom 59 423 5 0 0 0 - - -;
#X floatatom 113 425 5 0 0 0 - - -;
#X text 162 428 bundleDepth;
#X obj 18 169 sendOSC;
#X msg 18 26 connect localhost 12000;
#X obj 613 153 print "received_something";
#X obj 485 105 OSCroute /temp/ping;
#X obj 485 32 dumpOSC 51000;
#X msg 79 220 send /temp/connect/51000/pd /test;
#X obj 327 139 print "temp_ping_received";
#X msg 417 269 send /temp/pingreturn/51000;
#X msg 135 158 send /all/test 0 255 0;
#X connect 0 0 13 0;
#X connect 5 0 6 0;
#X connect 5 1 7 0;
#X connect 9 0 10 0;
#X connect 9 1 11 0;
#X connect 14 0 13 0;
#X connect 16 0 19 0;
#X connect 16 1 15 0;
#X connect 16 1 20 0;
#X connect 17 0 16 0;
#X connect 18 0 13 0;
#X connect 20 0 13 0;
#X connect 21 0 13 0;
